<?xml version="1.0" encoding="UTF-8" standalone="no"?>
<!DOCTYPE svg PUBLIC "-//W3C//DTD SVG 1.1//EN" "http://www.w3.org/Graphics/SVG/1.1/DTD/svg11.dtd">
<svg width="100%" height="100%" viewBox="0 0 316 113" version="1.1" xmlns="http://www.w3.org/2000/svg" xmlns:xlink="http://www.w3.org/1999/xlink" xml:space="preserve" xmlns:serif="http://www.serif.com/" style="fill-rule:evenodd;clip-rule:evenodd;stroke-miterlimit:10;">
    <g id="g226" transform="matrix(0.34965,0,0,0.355556,-441.805,-117.021)">
        <path id="path226" d="M1345.04,353.48C1345.04,360.567 1339.37,366.236 1332.28,366.236L1317.26,366.236C1310.17,366.236 1304.5,360.567 1304.5,353.48C1304.5,346.394 1310.17,340.724 1317.26,340.724L1332.28,340.724C1339.09,340.724 1345.04,346.394 1345.04,353.48Z" style="fill:none;fill-rule:nonzero;stroke:black;stroke-width:0.8px;"/>
    </g>
    <g id="g4" transform="matrix(0.34965,0,0,0.355556,-168.731,-21.686)">
        <path id="path4" d="M1345.04,353.48C1345.04,360.567 1339.37,366.236 1332.28,366.236L1317.26,366.236C1310.17,366.236 1304.5,360.567 1304.5,353.48C1304.5,346.394 1310.17,340.724 1317.26,340.724L1332.28,340.724C1339.09,340.724 1345.04,346.394 1345.04,353.48Z" style="fill:none;fill-rule:nonzero;stroke:black;stroke-width:0.8px;"/>
    </g>
    <g id="circle6" transform="matrix(6.12323e-17,-1,1,6.12323e-17,-24.3449,84.9624)">
        <circle cx="14.811" cy="280.743" r="8.787" style="fill:none;stroke:black;stroke-width:0.28px;stroke-linecap:round;stroke-linejoin:round;stroke-miterlimit:4;"/>
    </g>
    <g id="circle13" transform="matrix(6.12323e-17,-1,1,6.12323e-17,-24.3449,84.9624)">
        <circle cx="28.63" cy="48.076" r="9.921" style="fill:none;stroke:black;stroke-width:0.28px;stroke-linecap:round;stroke-linejoin:round;stroke-miterlimit:4;"/>
    </g>
    <g id="circle16" transform="matrix(6.12323e-17,-1,1,6.12323e-17,-24.3449,84.9624)">
        <circle cx="8.929" cy="235.602" r="4.535" style="fill:none;stroke:black;stroke-width:0.28px;stroke-linecap:round;stroke-linejoin:round;stroke-miterlimit:4;"/>
    </g>
    <g id="g2" transform="matrix(5.8201e-17,-0.950495,0.824903,5.05107e-17,-62.6044,245.204)">
        <rect id="rect2" x="170.079" y="85.039" width="57.26" height="364.252" style="fill:none;stroke:black;stroke-width:0.2px;stroke-linecap:round;stroke-linejoin:round;"/>
    </g>
    <g id="circle35" transform="matrix(6.12323e-17,-1,1,6.12323e-17,-24.3449,84.9624)">
        <circle cx="15.165" cy="253.106" r="7.087" style="fill:none;stroke:black;stroke-width:0.28px;stroke-linecap:round;stroke-linejoin:round;stroke-miterlimit:4;"/>
    </g>
    <g id="circle1" transform="matrix(6.12323e-17,-1,1,6.12323e-17,-24.3449,84.9624)">
        <circle cx="28.63" cy="104.769" r="9.921" style="fill:none;stroke:black;stroke-width:0.28px;stroke-linecap:round;stroke-linejoin:round;stroke-miterlimit:4;"/>
    </g>
    <g id="circle2" transform="matrix(6.12323e-17,-1,1,6.12323e-17,-24.3449,84.9624)">
        <circle cx="28.63" cy="161.461" r="9.921" style="fill:none;stroke:black;stroke-width:0.28px;stroke-linecap:round;stroke-linejoin:round;stroke-miterlimit:4;"/>
    </g>
    <g id="circle3" transform="matrix(6.12323e-17,-1,1,6.12323e-17,-24.3449,84.9624)">
        <circle cx="28.63" cy="218.154" r="9.921" style="fill:none;stroke:black;stroke-width:0.28px;stroke-linecap:round;stroke-linejoin:round;stroke-miterlimit:4;"/>
    </g>
    <g id="circle4" transform="matrix(6.12323e-17,-1,1,6.12323e-17,-24.3449,84.9624)">
        <circle cx="42.449" cy="280.743" r="8.787" style="fill:none;stroke:black;stroke-width:0.28px;stroke-linecap:round;stroke-linejoin:round;stroke-miterlimit:4;"/>
    </g>
    <g id="circle5" transform="matrix(6.12323e-17,-1,1,6.12323e-17,-24.3449,84.9624)">
        <circle cx="14.811" cy="314.646" r="8.787" style="fill:none;stroke:black;stroke-width:0.28px;stroke-linecap:round;stroke-linejoin:round;stroke-miterlimit:4;"/>
    </g>
    <g id="circle7" transform="matrix(6.12323e-17,-1,1,6.12323e-17,-24.3449,84.9624)">
        <circle cx="42.449" cy="314.646" r="8.787" style="fill:none;stroke:black;stroke-width:0.28px;stroke-linecap:round;stroke-linejoin:round;stroke-miterlimit:4;"/>
    </g>
    <g id="circle8" transform="matrix(6.12323e-17,-1,1,6.12323e-17,-24.3449,84.9624)">
        <circle cx="42.094" cy="253.106" r="7.087" style="fill:none;stroke:black;stroke-width:0.28px;stroke-linecap:round;stroke-linejoin:round;stroke-miterlimit:4;"/>
    </g>
    <g id="circle9" transform="matrix(6.12323e-17,-1,1,6.12323e-17,-24.3449,84.9624)">
        <circle cx="48.331" cy="235.602" r="4.535" style="fill:none;stroke:black;stroke-width:0.28px;stroke-linecap:round;stroke-linejoin:round;stroke-miterlimit:4;"/>
    </g>
    <g transform="matrix(0.887202,0,0,1.13225,-33.5521,-83.2144)">
        <rect x="37.931" y="73.583" width="355.927" height="99.266" style="fill:none;stroke:black;stroke-width:0.2px;stroke-linecap:round;stroke-linejoin:round;stroke-miterlimit:1.5;"/>
    </g>
</svg>
